# xmcd CD database file
#
# Track frame offsets:
#	150
#	17272
#	38325
#	65647
#
# Disc length: 1100 seconds
#
# Revision: 0
# Processed by: cddbd v1.5.1PL0 Copyright (c) Steve Scherf et al.
# Submitted via: CDex 1.51
#
DISCID=22044a04
DTITLE=Kitty and Daniel - 恋しちゃいなタウン (EP)
DYEAR=2002
DGENRE=Pop
TTITLE0=恋しちゃいなタウン
TTITLE1=もう泣かないよ
TTITLE2=もう泣かないよ (Night Clubbers Mix)
TTITLE3=恋しちゃいなタウン (Instrumental)
EXTD=YEAR: 2002
EXTT0=
EXTT1=
EXTT2=
EXTT3=
PLAYORDER=
